#N canvas 127 150 450 300 12;
#X floatatom 32 125 5 0 0 0 - - - 0;
#X obj 32 97 f \$1;
#X obj 32 69 expr abs($f1 - $f2);
#X obj 142 118 t b f;
#X obj 142 172 tgl 19 0 empty empty empty 17 7 0 10 #dfdfdf #000000 #000000 0 1;
#X obj 103 198 spigot;
#X obj 103 224 bng 19 250 50 0 empty empty empty 0 -10 0 12 #fcfcfc #000000 #000000;
#X obj 142 144 <=;
#X floatatom 142 93 5 0 0 0 - - - 0;
#X obj 121 45 bng 20 250 50 0 empty empty empty 0 -10 0 12 #fcfcfc #000000 #000000;
#X obj 162 25 inlet number_2;
#X obj 32 25 inlet number_1;
#X obj 228 73 inlet threshold;
#X obj 103 248 outlet;
#X obj 47 161 delay 1;
#X connect 0 0 7 0;
#X connect 0 0 14 0;
#X connect 1 0 0 0;
#X connect 2 0 1 0;
#X connect 3 0 7 0;
#X connect 3 1 7 1;
#X connect 4 0 5 1;
#X connect 5 0 6 0;
#X connect 6 0 13 0;
#X connect 7 0 4 0;
#X connect 8 0 3 0;
#X connect 9 0 2 0;
#X connect 10 0 9 0;
#X connect 10 0 2 1;
#X connect 11 0 2 0;
#X connect 12 0 8 0;
#X connect 14 0 5 0;
