#N canvas 1042 102 454 423 12;
#X obj 96 129 bng 19 250 50 0 empty empty empty 0 -10 0 12 #fcfcfc #000000 #000000;
#X obj 96 178 list store;
#X msg 177 106 append \$1;
#X obj 163 148 delay 10;
#X obj 210 198 list length;
#X floatatom 210 223 5 0 0 0 - - - 0;
#X obj 96 48 comport;
#X msg 37 28 open 0;
#X msg 155 28 close 0;
#X obj 96 73 select 10 13;
#X obj 96 293 f;
#X floatatom 96 318 5 0 0 0 - - - 0;
#X obj 96 210 list trim;
#X obj 96 236 list tosymbol;
#X obj 96 264 makefilename %s;
#X connect 0 0 3 0;
#X connect 0 0 1 0;
#X connect 1 0 4 0;
#X connect 1 0 12 0;
#X connect 2 0 1 0;
#X connect 3 0 1 1;
#X connect 4 0 5 0;
#X connect 6 0 9 0;
#X connect 7 0 6 0;
#X connect 8 0 6 0;
#X connect 9 0 0 0;
#X connect 9 2 2 0;
#X connect 10 0 11 0;
#X connect 12 0 13 0;
#X connect 13 0 14 0;
#X connect 14 0 10 0;
