#N canvas 303 373 308 283 12;
#X obj 25 13 tgl 20 0 empty empty empty 0 -10 0 12 #fcfcfc #000000 #000000 0 1;
#X obj 25 80 f 0;
#X floatatom 25 137 5 0 0 0 - - - 0;
#X obj 71 60 + 1;
#X msg 71 128 0;
#X obj 71 100 sel;
#X obj 25 161 bng 20 250 50 0 empty empty empty 0 -10 0 12 #fcfcfc #000000 #000000;
#X obj 25 38 metro 100;
#X msg 116 80 12;
#X obj 116 52 loadbang;
#X connect 0 0 7 0;
#X connect 1 0 2 0;
#X connect 1 0 3 0;
#X connect 1 0 5 0;
#X connect 2 0 6 0;
#X connect 3 0 1 1;
#X connect 4 0 0 0;
#X connect 4 0 1 0;
#X connect 5 0 4 0;
#X connect 7 0 1 0;
#X connect 8 0 5 1;
#X connect 9 0 8 0;
