#N canvas 838 -937 552 400 12;
#X obj 170 98 bng 19 250 50 0 empty empty empty 0 -10 0 12 #fcfcfc #000000 #000000;
#X obj 143 57 bng 19 250 50 0 empty empty empty 0 -10 0 12 #fcfcfc #000000 #000000;
#X msg 170 49 stop;
#X obj 169 26 bng 19 250 50 0 empty empty empty 0 -10 0 12 #fcfcfc #000000 #000000;
#X obj 170 125 f;
#X obj 211 127 + 1;
#X floatatom 115 108 5 0 0 0 - - - 0;
#X floatatom 170 149 5 0 0 0 - - - 0;
#X obj 170 174 sel 4;
#X obj 83 115 bng 19 250 50 0 empty empty empty 0 -10 0 12 #fcfcfc #000000 #000000;
#X obj 170 75 metro 500;
#X connect 0 0 4 0;
#X connect 1 0 10 0;
#X connect 2 0 10 0;
#X connect 3 0 2 0;
#X connect 4 0 5 0;
#X connect 4 0 7 0;
#X connect 5 0 4 1;
#X connect 6 0 4 0;
#X connect 7 0 8 0;
#X connect 8 0 9 0;
#X connect 9 0 6 0;
#X connect 10 0 0 0;
