#N canvas 1153 -662 450 300 12;
#X floatatom 194 57 3 0 0 0 - - - 0;
#X obj 194 81 t b f;
#X floatatom 135 94 5 0 0 0 - - - 0;
#X obj 174 141 tgl 19 0 empty empty empty 17 7 0 10 #dfdfdf #000000 #000000 0 1;
#X obj 224 141 tgl 19 0 empty empty empty 17 7 0 10 #dfdfdf #000000 #000000 0 1;
#X obj 135 167 spigot;
#X obj 185 167 spigot;
#X obj 208 204 bng 19 250 50 0 empty empty empty 0 -10 0 12 #fcfcfc #000000 #000000;
#X obj 108 202 bng 19 250 50 0 empty empty empty 0 -10 0 12 #fcfcfc #000000 #000000;
#X obj 194 23 inlet threshold;
#X obj 31 50 inlet nb_to_compare;
#X obj 102 236 outlet yes;
#X obj 204 237 outlet no;
#X obj 174 113 <;
#X obj 224 113 >;
#X connect 0 0 1 0;
#X connect 1 0 13 0;
#X connect 1 0 14 0;
#X connect 1 1 13 1;
#X connect 1 1 14 1;
#X connect 2 0 5 0;
#X connect 2 0 6 0;
#X connect 2 0 13 0;
#X connect 2 0 14 0;
#X connect 3 0 5 1;
#X connect 4 0 6 1;
#X connect 5 0 7 0;
#X connect 6 0 8 0;
#X connect 7 0 12 0;
#X connect 8 0 11 0;
#X connect 9 0 0 0;
#X connect 10 0 2 0;
#X connect 13 0 3 0;
#X connect 14 0 4 0;
