#N canvas 660 142 546 320 12;
#X obj 71 54 netreceive -u -b;
#X msg 146 29 listen 9000;
#X msg 71 29 listen 0;
#X obj 71 79 oscparse;
#X obj 71 104 list trim;
#X obj 163 124 print;
#X obj 71 153 route filter;
#X floatatom 167 173 5 0 0 0 - - - 0;
#X obj 71 205 route position;
#X floatatom 179 225 5 0 0 0 - - - 0;
#X connect 0 0 3 0;
#X connect 1 0 0 0;
#X connect 2 0 0 0;
#X connect 3 0 4 0;
#X connect 4 0 5 0;
#X connect 4 0 6 0;
#X connect 4 0 8 0;
#X connect 6 0 7 0;
#X connect 8 0 9 0;
