#N canvas 710 177 940 577 12;
#X obj 130 152 bng 20 250 50 0 empty empty empty 0 -10 0 12 #fcfcfc #000000 #000000;
#X obj 166 152 bng 20 250 50 0 empty empty empty 0 -10 0 12 #fcfcfc #000000 #000000;
#X msg 130 177 A;
#X msg 166 177 B;
#X obj 240 152 bng 20 250 50 0 empty empty empty 0 -10 0 12 #fcfcfc #000000 #000000;
#X msg 240 177 END;
#X obj 217 234 bng 19 250 50 0 empty empty empty 0 -10 0 12 #fcfcfc #000000 #000000;
#X obj 217 283 list store;
#X msg 298 211 append \$1;
#X obj 331 303 list length;
#X floatatom 331 328 5 0 0 0 - - - 0;
#X obj 217 398 f;
#X obj 217 315 list trim;
#X obj 217 341 list tosymbol;
#X obj 217 369 makefilename %s;
#X floatatom 217 423 5 0 0 0 - - - 0;
#X obj 175 117 select 65 66 10 13;
#X msg 175 54 66 \, 57 \, 52 \, 53 \, 10 \, 13;
#X msg 22 56 65 \, 49 \, 57 \, 10 \, 13;
#X text 313 109 On selectionne le potar qu'on veut changer;
#X text 350 46 le caractère 10 et 13 correspondent à la fin d'un print() sur le port série;
#X obj 284 253 delay 1;
#X text 19 15 message avec 65('a') indicatif;
#X text 174 31 message avec 66('b') indicatif;
#X connect 0 0 2 0;
#X connect 1 0 3 0;
#X connect 4 0 5 0;
#X connect 4 0 6 0;
#X connect 6 0 7 0;
#X connect 6 0 21 0;
#X connect 7 0 9 0;
#X connect 7 0 12 0;
#X connect 8 0 7 0;
#X connect 9 0 10 0;
#X connect 11 0 15 0;
#X connect 12 0 13 0;
#X connect 13 0 14 0;
#X connect 14 0 11 0;
#X connect 16 0 0 0;
#X connect 16 1 1 0;
#X connect 16 2 4 0;
#X connect 16 4 8 0;
#X connect 17 0 16 0;
#X connect 18 0 16 0;
#X connect 21 0 7 1;
