#N canvas 555 190 754 528 12;
#N canvas 0 50 450 250 (subpatch) 0;
#X array audio-data 3.18701e+06 float 2;
#X coords 0 1 3.18701e+06 -1 200 140 1;
#X restore 517 76 graph;
#X obj 104 36 bng 20 250 50 0 empty empty empty 0 -10 0 12 #fcfcfc #000000 #000000;
#X obj 104 77 openpanel;
#X msg 104 102 read -resize \$1 audio-data;
#X obj 104 127 soundfiler;
#X floatatom 121 147 14 0 0 0 - - - 0;
#X obj 121 171 s sampleSize;
#X floatatom 144 225 5 0 0 0 - - - 0;
#X obj 103 401 *~;
#X obj 102 454 dac~;
#X obj 368 269 tgl 20 0 empty empty empty 0 -10 0 12 #fcfcfc #000000 #000000 0 1;
#X obj 368 321 snapshot~;
#X floatatom 368 346 11 0 0 0 - - - 0;
#X obj 368 389 /;
#X floatatom 368 414 5 0 0 0 - - - 0;
#X obj 521 251 hsl 170 20 0 1 0 0 empty empty empty -2 -10 0 12 #fcfcfc #000000 #000000 0 1;
#X obj 404 369 r sampleSize;
#X obj 104 256 phasor~;
#X obj 103 347 tabread4~ audio-data;
#X obj 260 348 vsl 30 50 0 1 0 0 empty empty empty 0 -9 0 12 #fcfcfc #000000 #000000 0 1;
#X obj 15 34 tgl 20 0 empty empty empty 0 -10 0 12 #fcfcfc #000000 #000000 0 1;
#X msg 15 63 \; pd dsp \$1;
#X obj 136 280 r sampleSize;
#X obj 104 300 *~;
#X obj 104 205 expr 24000 / $f1;
#X obj 265 212 hsl 75 20 -0.015 0.015 0 0 empty empty empty -2 -10 0 12 #fcfcfc #000000 #000000 0 1;
#X floatatom 262 237 10 0 0 0 - - - 0;
#X msg 297 183 0.007;
#X msg 262 183 0;
#X text 211 16 https://www.youtube.com/watch?v=boX0v54SqtU;
#X obj 368 438 s cursor;
#X obj 518 223 r cursor;
#X obj 368 296 metro 100;
#X obj 405 101 loadbang;
#X connect 1 0 2 0;
#X connect 2 0 3 0;
#X connect 3 0 4 0;
#X connect 4 0 5 0;
#X connect 4 0 24 0;
#X connect 5 0 6 0;
#X connect 8 0 9 0;
#X connect 8 0 9 1;
#X connect 10 0 32 0;
#X connect 11 0 12 0;
#X connect 12 0 13 0;
#X connect 13 0 14 0;
#X connect 14 0 30 0;
#X connect 16 0 13 1;
#X connect 17 0 23 0;
#X connect 18 0 8 0;
#X connect 19 0 8 1;
#X connect 20 0 21 0;
#X connect 22 0 23 1;
#X connect 23 0 18 0;
#X connect 23 0 11 0;
#X connect 24 0 7 0;
#X connect 24 0 17 0;
#X connect 25 0 26 0;
#X connect 26 0 17 0;
#X connect 27 0 25 0;
#X connect 28 0 25 0;
#X connect 31 0 15 0;
#X connect 32 0 11 0;
